<?xml version="1.0" encoding="iso-8859-1"?>
<!-- Generator: Adobe Illustrator 19.0.0, SVG Export Plug-In . SVG Version: 6.00 Build 0)  -->
<svg version="1.1" id="Layer_1" xmlns="http://www.w3.org/2000/svg" xmlns:xlink="http://www.w3.org/1999/xlink" x="0px" y="0px"
	 viewBox="0 0 511.999 511.999" style="enable-background:new 0 0 511.999 511.999;" xml:space="preserve">
<g>
	<g>
		<path d="M255.998,214.787c-22.724,0-41.212,18.488-41.212,41.212s18.488,41.212,41.212,41.212s41.212-18.488,41.212-41.212
			S278.723,214.787,255.998,214.787z"/>
	</g>
</g>
<g>
	<g>
		<path d="M507.836,244.912c-1.147-1.312-28.596-32.502-72.998-63.93c-59.487-42.105-121.329-64.362-178.84-64.362
			c-57.51,0-119.352,22.256-178.839,64.362C32.758,212.41,5.308,243.6,4.162,244.912c-5.549,6.35-5.549,15.824,0,22.174
			c1.147,1.312,28.596,32.502,72.998,63.931c59.487,42.105,121.329,64.362,178.839,64.362c57.511,0,119.353-22.256,178.84-64.362
			c44.402-31.428,71.852-62.618,72.998-63.931C513.386,260.737,513.386,251.262,507.836,244.912z M255.997,350.365
			c-52.032,0-94.365-42.332-94.365-94.366s42.332-94.366,94.365-94.366c52.036,0,94.367,42.332,94.367,94.366
			S308.033,350.365,255.997,350.365z"/>
	</g>
</g>
<g>
</g>
<g>
</g>
<g>
</g>
<g>
</g>
<g>
</g>
<g>
</g>
<g>
</g>
<g>
</g>
<g>
</g>
<g>
</g>
<g>
</g>
<g>
</g>
<g>
</g>
<g>
</g>
<g>
</g>
</svg>
